<svg height="512pt" fill="#d35649" viewBox="-16 0 512 512.00102" width="512pt" xmlns="http://www.w3.org/2000/svg"><path d="m61.160156 234.550781h75.835938c5.523437 0 10-4.476562 10-10 0-5.519531-4.476563-10-10-10h-75.835938c-5.523437 0-10 4.480469-10 10 0 5.523438 4.476563 10 10 10zm0 0"/><path d="m61.160156 282.554688h82.503906c5.519532 0 10-4.480469 10-10 0-5.523438-4.480468-10-10-10h-82.503906c-5.523437 0-10 4.476562-10 10 0 5.519531 4.476563 10 10 10zm0 0"/><path d="m184.917969 282.550781c2.628906 0 5.210937-1.058593 7.070312-2.929687 1.859375-1.859375 2.929688-4.429688 2.929688-7.070313 0-2.628906-1.070313-5.210937-2.929688-7.070312s-4.441406-2.929688-7.070312-2.929688c-2.628907 0-5.210938 1.070313-7.070313 2.929688-1.871094 1.859375-2.929687 4.441406-2.929687 7.070312 0 2.640625 1.058593 5.210938 2.929687 7.070313 1.859375 1.871094 4.429688 2.929687 7.070313 2.929687zm0 0"/><path d="m278.035156 218.007812c48.527344 0 88.003906-39.476562 88.003906-88.003906 0-48.523437-39.476562-88.003906-88.003906-88.003906-48.523437 0-88.003906 39.480469-88.003906 88.003906 0 48.527344 39.480469 88.003906 88.003906 88.003906zm0-156.003906c37.496094 0 68.003906 30.503906 68.003906 68s-30.507812 68.003906-68.003906 68.003906-68-30.507812-68-68.003906 30.503906-68 68-68zm0 0"/><path d="m470.109375 274.125-12.089844-12.089844v-136.050781c0-27.570313-22.433593-50.003906-50.003906-50.003906h-11.742187c-20.550782-44.792969-65.816407-75.980469-118.238282-75.980469-52.417968 0-97.6875 31.1875-118.234375 75.980469h-109.796875c-27.574218 0-50.003906 22.433593-50.003906 50.003906v252.007813c0 27.574218 22.429688 50.003906 50.003906 50.003906h128.96875v24.023437c-27.125.523438-49.027344 22.734375-49.027344 49.980469 0 5.523438 4.476563 10 10 10h178.054688c5.523438 0 10-4.476562 10-10 0-27.246094-21.902344-49.453125-49.023438-49.980469v-24.023437h129.039063c27.574219 0 50.003906-22.429688 50.003906-50.003906v-48.121094c4.484375-1.675782 8.601563-4.300782 12.089844-7.789063 13.21875-13.222656 13.21875-34.734375 0-47.957031zm-62.09375-178.140625c16.542969 0 30.003906 13.457031 30.003906 30v116.050781l-47.28125-47.28125c11.003907-19.074218 17.304688-41.1875 17.304688-64.75 0-11.765625-1.582031-23.171875-4.527344-34.019531zm-129.980469-75.984375c60.65625 0 110.003906 49.347656 110.003906 110.003906s-49.347656 110.003906-110.003906 110.003906-110.003906-49.347656-110.003906-110.003906 49.347656-110.003906 110.003906-110.003906zm-228.03125 75.984375h102.554688c-2.945313 10.847656-4.527344 22.253906-4.527344 34.019531 0 12.6875 1.835938 24.945313 5.238281 36.546875h-92.109375c-5.523437 0-10 4.476563-10 10 0 5.519531 4.476563 10 10 10h99.824219c21.070313 43.4375 65.621094 73.460938 117.050781 73.460938 23.558594 0 45.671875-6.300781 64.746094-17.300781l79.371094 79.371093c4.445312 4.445313 9.910156 7.5 15.867187 8.957031v8.953126h-418.019531v-214.007813c0-16.542969 13.460938-30 30.003906-30zm256.285156 396.015625h-154.628906c4.125-11.644531 15.25-20.003906 28.289063-20.003906h98.046875c13.039062 0 24.164062 8.359375 28.292968 20.003906zm-47.3125-40.003906h-60.003906v-24h60.003906zm149.039063-44h-358.011719c-16.542968 0-30.003906-13.460938-30.003906-30.003906v-18h418.019531v18c0 16.542968-13.460937 30.003906-30.003906 30.003906zm47.949219-100.058594c-5.421875 5.425781-14.25 5.421875-19.671875 0l-76.738281-76.742188c7.234374-5.835937 13.832031-12.433593 19.667968-19.667968l76.742188 76.742187c5.421875 5.421875 5.421875 14.246094 0 19.667969zm0 0"/><path d="m278.035156 105.007812c13.785156 0 25 11.214844 25 24.996094 0 5.523438 4.476563 10 10 10 5.523438 0 10-4.476562 10-10 0-24.8125-20.1875-44.996094-45-44.996094-5.523437 0-10 4.480469-10 10 0 5.523438 4.476563 10 10 10zm0 0"/></svg>